<mxfile host="app.diagrams.net" agent="Mozilla/5.0 (Macintosh; Intel Mac OS X 10_15_7) AppleWebKit/537.36 (KHTML, like Gecko) Chrome/129.0.0.0 Safari/537.36" version="24.7.17">
  <diagram name="第 1 页" id="Hs4y2ESWxa5n9uRpKNDX">
    <mxGraphModel dx="954" dy="639" grid="1" gridSize="10" guides="1" tooltips="1" connect="1" arrows="1" fold="1" page="1" pageScale="1" pageWidth="827" pageHeight="1169" math="0" shadow="0">
      <root>
        <mxCell id="0" />
        <mxCell id="1" parent="0" />
        <mxCell id="uIdJ23Ddc8N1so12L_VP-1" value="" style="shape=trapezoid;perimeter=trapezoidPerimeter;whiteSpace=wrap;html=1;fixedSize=1;rotation=90;" vertex="1" parent="1">
          <mxGeometry x="220" y="210" width="120" height="60" as="geometry" />
        </mxCell>
        <mxCell id="uIdJ23Ddc8N1so12L_VP-5" style="edgeStyle=orthogonalEdgeStyle;rounded=0;orthogonalLoop=1;jettySize=auto;html=1;exitX=1;exitY=0.5;exitDx=0;exitDy=0;entryX=0.5;entryY=1;entryDx=0;entryDy=0;" edge="1" parent="1" source="uIdJ23Ddc8N1so12L_VP-2" target="uIdJ23Ddc8N1so12L_VP-1">
          <mxGeometry relative="1" as="geometry" />
        </mxCell>
        <mxCell id="uIdJ23Ddc8N1so12L_VP-2" value="Audio Data" style="rounded=1;whiteSpace=wrap;html=1;" vertex="1" parent="1">
          <mxGeometry x="70" y="210" width="120" height="60" as="geometry" />
        </mxCell>
        <mxCell id="uIdJ23Ddc8N1so12L_VP-9" style="edgeStyle=orthogonalEdgeStyle;rounded=0;orthogonalLoop=1;jettySize=auto;html=1;" edge="1" parent="1" source="uIdJ23Ddc8N1so12L_VP-6">
          <mxGeometry relative="1" as="geometry">
            <mxPoint x="370" y="300" as="targetPoint" />
          </mxGeometry>
        </mxCell>
        <mxCell id="uIdJ23Ddc8N1so12L_VP-6" value="Audio&lt;div&gt;&amp;nbsp;Encoder&lt;/div&gt;" style="text;html=1;align=center;verticalAlign=middle;resizable=0;points=[];autosize=1;strokeColor=none;fillColor=none;" vertex="1" parent="1">
          <mxGeometry x="245" y="220" width="70" height="40" as="geometry" />
        </mxCell>
        <mxCell id="uIdJ23Ddc8N1so12L_VP-7" value="" style="rounded=1;whiteSpace=wrap;html=1;rotation=90;" vertex="1" parent="1">
          <mxGeometry x="420" y="305" width="124" height="25" as="geometry" />
        </mxCell>
        <mxCell id="uIdJ23Ddc8N1so12L_VP-18" value="" style="edgeStyle=orthogonalEdgeStyle;rounded=0;orthogonalLoop=1;jettySize=auto;html=1;" edge="1" parent="1" source="uIdJ23Ddc8N1so12L_VP-8" target="uIdJ23Ddc8N1so12L_VP-17">
          <mxGeometry relative="1" as="geometry" />
        </mxCell>
        <mxCell id="uIdJ23Ddc8N1so12L_VP-8" value="MLP" style="text;html=1;align=center;verticalAlign=middle;resizable=0;points=[];autosize=1;strokeColor=none;fillColor=none;" vertex="1" parent="1">
          <mxGeometry x="457" y="300" width="50" height="30" as="geometry" />
        </mxCell>
        <mxCell id="uIdJ23Ddc8N1so12L_VP-14" style="edgeStyle=orthogonalEdgeStyle;rounded=0;orthogonalLoop=1;jettySize=auto;html=1;" edge="1" parent="1" source="uIdJ23Ddc8N1so12L_VP-10">
          <mxGeometry relative="1" as="geometry">
            <mxPoint x="370" y="340" as="targetPoint" />
          </mxGeometry>
        </mxCell>
        <mxCell id="uIdJ23Ddc8N1so12L_VP-10" value="" style="shape=trapezoid;perimeter=trapezoidPerimeter;whiteSpace=wrap;html=1;fixedSize=1;rotation=90;" vertex="1" parent="1">
          <mxGeometry x="220" y="380" width="120" height="60" as="geometry" />
        </mxCell>
        <mxCell id="uIdJ23Ddc8N1so12L_VP-11" style="edgeStyle=orthogonalEdgeStyle;rounded=0;orthogonalLoop=1;jettySize=auto;html=1;exitX=1;exitY=0.5;exitDx=0;exitDy=0;entryX=0.5;entryY=1;entryDx=0;entryDy=0;" edge="1" parent="1" source="uIdJ23Ddc8N1so12L_VP-12" target="uIdJ23Ddc8N1so12L_VP-10">
          <mxGeometry relative="1" as="geometry" />
        </mxCell>
        <mxCell id="uIdJ23Ddc8N1so12L_VP-12" value="Visual Data" style="rounded=1;whiteSpace=wrap;html=1;" vertex="1" parent="1">
          <mxGeometry x="70" y="380" width="120" height="60" as="geometry" />
        </mxCell>
        <mxCell id="uIdJ23Ddc8N1so12L_VP-13" value="&lt;div&gt;Visual&lt;/div&gt;&lt;div&gt;&amp;nbsp;Encoder&lt;/div&gt;" style="text;html=1;align=center;verticalAlign=middle;resizable=0;points=[];autosize=1;strokeColor=none;fillColor=none;" vertex="1" parent="1">
          <mxGeometry x="245" y="390" width="70" height="40" as="geometry" />
        </mxCell>
        <mxCell id="uIdJ23Ddc8N1so12L_VP-16" style="edgeStyle=orthogonalEdgeStyle;rounded=0;orthogonalLoop=1;jettySize=auto;html=1;" edge="1" parent="1" source="uIdJ23Ddc8N1so12L_VP-15" target="uIdJ23Ddc8N1so12L_VP-8">
          <mxGeometry relative="1" as="geometry" />
        </mxCell>
        <mxCell id="uIdJ23Ddc8N1so12L_VP-15" value="Concatenation" style="text;html=1;align=center;verticalAlign=middle;resizable=0;points=[];autosize=1;strokeColor=none;fillColor=none;" vertex="1" parent="1">
          <mxGeometry x="315" y="300" width="100" height="30" as="geometry" />
        </mxCell>
        <mxCell id="uIdJ23Ddc8N1so12L_VP-17" value="&amp;nbsp;Prediction" style="text;html=1;align=center;verticalAlign=middle;resizable=0;points=[];autosize=1;strokeColor=none;fillColor=none;" vertex="1" parent="1">
          <mxGeometry x="580" y="300" width="80" height="30" as="geometry" />
        </mxCell>
      </root>
    </mxGraphModel>
  </diagram>
</mxfile>
